# xmcd CD database file
#
# Track frame offsets:
#	150
#	13866
#	26549
#	39760
#	56905
#	67470
#	79593
#	89654
#	102990
#	116115
#	128367
#	143537
#	156493
#	166225
#	177627
#	193370
#	206773
#	218530
#	235255
#	246383
#
# Disc length: 3533 seconds
#
# Revision: 0
# Processed by: cddbd v1.5.1PL0 Copyright (c) Steve Scherf et al.
# Submitted via: CDex 1.51
#
DISCID=270dcb14
DTITLE=Little Jimmy Dickens - Gold Country
DYEAR=1900
DGENRE=Country
TTITLE0=Life Turned Her That Way
TTITLE1=Old Cold Tator
TTITLE2=It Didn't Take Me Long To Miss You
TTITLE3=Back To The Hills
TTITLE4=Out Behind The Barn
TTITLE5=Before My Time
TTITLE6=Bird Of Paradise
TTITLE7=I'd Like To Live It Again
TTITLE8=Country Boy
TTITLE9=She's A Good Time
TTITLE10=Who's Gonna Steal The Peanut Butter
TTITLE11=What Will I Do Then
TTITLE12=Helpless
TTITLE13=Sleepin' At The Foot Of The Bed
TTITLE14=Death In The Family
TTITLE15=Hell Of A Night In Dixie
TTITLE16=Geraldine
TTITLE17=Shoppin' For Dresses
TTITLE18=Memories Of The Mountain
TTITLE19=Raddedy Ann
EXTD=
EXTT0=
EXTT1=
EXTT2=
EXTT3=
EXTT4=
EXTT5=
EXTT6=
EXTT7=
EXTT8=
EXTT9=
EXTT10=
EXTT11=
EXTT12=
EXTT13=
EXTT14=
EXTT15=
EXTT16=
EXTT17=
EXTT18=
EXTT19=
PLAYORDER=
